<svg width="65" height="65" viewBox="0 0 65 65" fill="none" xmlns="http://www.w3.org/2000/svg">
<path d="M32.5 34.0347C39.2336 34.0347 44.6875 28.5404 44.6875 21.757C44.6875 14.9734 39.2336 9.47919 32.5 9.47919C25.7664 9.47919 20.3125 14.9734 20.3125 21.757C20.3125 28.5404 25.7664 34.0347 32.5 34.0347Z" fill="#2B4053"/>
<path fill-rule="evenodd" clip-rule="evenodd" d="M24.5448 39.2084C24.2357 38.5749 23.5373 38.2326 22.8564 38.4C15.5384 40.1983 8.125 43.8653 8.125 49.3816V58.2288H56.875V49.3816C56.875 43.8653 49.4616 40.1983 42.1436 38.4C41.4627 38.2326 40.7643 38.5749 40.4552 39.2084L34.9517 43.2709C33.7483 43.2712 33.1355 43.2712 32.5336 43.271C31.9092 43.271 31.2964 43.271 30.048 43.2713L24.5448 39.2084ZM41.9792 41.9792H44.6875V46.0417H48.75V48.75H44.6875V52.8125H41.9792V48.75H37.9167V46.0417H41.9792V41.9792Z" fill="#2B4053"/>
</svg>
