<svg width="65" height="65" viewBox="0 0 65 65" fill="none" xmlns="http://www.w3.org/2000/svg">
<path fill-rule="evenodd" clip-rule="evenodd" d="M35.5275 17.9839C38.3014 14.8121 53.1352 10.8333 53.1352 10.8333C53.1352 10.8333 50.6137 26.6994 48.3947 29.2368C46.8251 31.0317 41.9968 30.0563 39.3054 29.3318C38.1239 31.2027 37.1249 33.2743 36.6027 35.4354C36.4227 36.1806 35.6241 36.5507 34.819 36.2619C34.014 35.973 33.5072 35.1348 33.6872 34.3897C34.2903 31.8932 35.4282 29.557 36.7356 27.4984C35.5431 25.1917 33.4582 20.35 35.5275 17.9839ZM18.8079 37.9166H12.1875V52.8125H18.8079V50.2309C19.879 50.1941 20.9945 50.1652 21.4691 50.1839C23.7391 50.2737 25.4344 50.8024 27.1483 51.337C28.7473 51.8357 30.3629 52.3396 32.4767 52.4968C33.0079 52.5362 33.5248 52.5873 34.026 52.6367H34.0261C35.8363 52.8152 37.4405 52.9734 38.7667 52.4968C40.4602 51.8881 50.1372 47.2626 51.3469 46.0453C52.5564 44.828 51.9517 41.5413 48.2018 42.15C46.3515 42.4503 44.2068 43.3138 42.2615 44.0968C40.2645 44.9008 38.4778 45.62 37.4361 45.5583C35.3798 45.4366 29.9364 44.4628 29.9364 44.4628L36.1863 44.537C36.1863 44.537 37.0692 44.5831 38.2828 43.7325C39.4964 42.882 40.5811 40.4458 38.7667 40.4458C36.9522 40.4458 35.0169 39.8373 35.0169 39.8373L27.2752 38.133C27.2752 38.133 24.614 37.6461 23.5254 38.133C22.8346 38.4419 20.4552 39.2899 18.8079 39.8685V37.9166ZM17.1849 16.9097C17.1849 16.9097 28.1944 19.8938 30.253 22.2726C31.6842 23.9265 30.4379 27.1926 29.5452 29.0299C30.6195 30.7986 31.561 32.7279 32.1711 34.7387C32.3891 35.4571 31.9891 36.2188 31.2777 36.4401C30.5662 36.6613 29.8129 36.2582 29.5949 35.5398C29.0978 33.9013 28.3365 32.296 27.445 30.7847C25.4467 31.3279 21.8675 32.0576 20.7033 30.7123C19.0564 28.8093 17.1849 16.9097 17.1849 16.9097ZM38.6525 27.0466C38.0388 26.6191 37.8878 25.7752 38.3153 25.1615C40.7451 21.6729 42.676 19.4139 44.0184 18.0134C44.6898 17.313 45.2144 16.827 45.5808 16.5093C45.7642 16.3503 45.908 16.2335 46.0108 16.1529C46.0622 16.1125 46.1036 16.0814 46.1343 16.0585L46.1728 16.0303L46.186 16.0207L46.1913 16.0171L46.1935 16.0156L46.1944 16.0148C46.195 16.0145 46.1954 16.0141 46.9683 17.1145L46.1954 16.0141C46.8074 15.5843 47.652 15.7319 48.0819 16.3438C48.5103 16.9539 48.3651 17.7948 47.7583 18.226L47.749 18.2329C47.7371 18.2417 47.7143 18.2589 47.681 18.285C47.6143 18.3372 47.5052 18.4254 47.3551 18.5556C47.0547 18.8159 46.5904 19.244 45.9735 19.8875C44.7398 21.1747 42.8969 23.3223 40.5377 26.7094C40.1101 27.323 39.2662 27.474 38.6525 27.0466ZM28.0512 27.1911C28.4761 27.8075 28.3255 28.656 27.7146 29.0863C27.1039 29.5163 26.2643 29.3654 25.8394 28.7488C24.5804 26.9223 23.6045 25.7751 22.9622 25.098C22.6413 24.7596 22.4039 24.539 22.2565 24.4099C22.183 24.3453 22.1318 24.3038 22.1041 24.2817C22.0915 24.2718 22.0836 24.2658 22.0806 24.2635C21.4811 23.8294 21.3392 22.9868 21.765 22.3751C22.1933 21.7598 23.0337 21.6111 23.6421 22.043L22.87 23.1522C23.6421 22.043 23.6425 22.0432 23.6431 22.0436L23.644 22.0443L23.6461 22.0458L23.6505 22.0489L23.6609 22.0565L23.6882 22.0767C23.7092 22.0924 23.7356 22.1127 23.7675 22.138C23.8313 22.1884 23.9169 22.2588 24.0233 22.3521C24.2365 22.5389 24.5336 22.8174 24.9087 23.213C25.6587 24.0037 26.722 25.2628 28.0512 27.1911Z" fill="#2B4053"/>
</svg>
