<svg width="65" height="65" viewBox="0 0 65 65" fill="none" xmlns="http://www.w3.org/2000/svg">
<path d="M56.8763 8.125H32.5013C31.0055 8.125 29.793 9.33756 29.793 10.8333V16.25H56.8763V8.125Z" fill="#2B4053"/>
<path d="M29.793 20.3125C29.793 19.5646 30.3992 18.9583 31.1471 18.9583H39.2721C40.02 18.9583 40.6263 19.5646 40.6263 20.3125C40.6263 21.0604 40.02 21.6666 39.2721 21.6666H31.1471C30.3992 21.6666 29.793 21.0604 29.793 20.3125Z" fill="#2B4053"/>
<path fill-rule="evenodd" clip-rule="evenodd" d="M35.2096 24.6078C35.9575 24.6078 36.5638 25.214 36.5638 25.962V28.6703C36.5638 29.4182 35.9575 30.0245 35.2096 30.0245C34.4617 30.0245 33.8555 29.4182 33.8555 28.6703V25.962C33.8555 25.214 34.4617 24.6078 35.2096 24.6078Z" fill="#2B4053"/>
<path fill-rule="evenodd" clip-rule="evenodd" d="M38.8751 24.7715C39.4039 24.2427 40.2614 24.2427 40.7902 24.7715L42.7052 26.6865C43.2342 27.2153 43.2342 28.0728 42.7052 28.6016C42.1764 29.1305 41.319 29.1305 40.7902 28.6016L38.8751 26.6865C38.3463 26.1577 38.3463 25.3003 38.8751 24.7715Z" fill="#2B4053"/>
<path fill-rule="evenodd" clip-rule="evenodd" d="M27.4786 28.834C26.9498 28.3052 26.9498 27.4477 27.4786 26.9189L29.3937 25.0039C29.9225 24.4749 30.78 24.4749 31.3088 25.0039C31.8376 25.5327 31.8376 26.3901 31.3088 26.9189L29.3937 28.834C28.8649 29.3628 28.0074 29.3628 27.4786 28.834Z" fill="#2B4053"/>
<path fill-rule="evenodd" clip-rule="evenodd" d="M35.2096 31.3786C35.9575 31.3786 36.5638 31.9849 36.5638 32.7328V35.4411C36.5638 36.189 35.9575 36.7953 35.2096 36.7953C34.4617 36.7953 33.8555 36.189 33.8555 35.4411V32.7328C33.8555 31.9849 34.4617 31.3786 35.2096 31.3786Z" fill="#2B4053"/>
<path fill-rule="evenodd" clip-rule="evenodd" d="M43.6134 29.5111C44.1422 28.9823 44.9997 28.9823 45.5285 29.5111L47.4435 31.4262C47.9725 31.955 47.9725 32.8124 47.4435 33.3412C46.9147 33.8702 46.0573 33.8702 45.5285 33.3412L43.6134 31.4262C43.0846 30.8974 43.0846 30.0399 43.6134 29.5111Z" fill="#2B4053"/>
<path fill-rule="evenodd" clip-rule="evenodd" d="M22.7404 33.2351C22.2115 32.7063 22.2115 31.8488 22.7404 31.32L24.6554 29.4049C25.1842 28.876 26.0417 28.876 26.5705 29.4049C27.0993 29.9337 27.0993 30.7912 26.5705 31.32L24.6554 33.2351C24.1266 33.7639 23.2692 33.7639 22.7404 33.2351Z" fill="#2B4053"/>
<path fill-rule="evenodd" clip-rule="evenodd" d="M10.8333 38.5937C9.33756 38.5937 8.125 39.8063 8.125 41.3021V54.1667C8.125 55.6625 9.33756 56.875 10.8333 56.875H13.5417C15.0375 56.875 16.25 55.6625 16.25 54.1667V53.7068C17.5646 53.6615 18.9334 53.6261 19.516 53.6491C22.302 53.7592 24.3824 54.4081 26.486 55.0642C28.4485 55.6763 30.4311 56.2947 33.0253 56.4876C33.6773 56.536 34.3119 56.5986 34.9271 56.6593C37.1484 56.8784 39.1173 57.0726 40.745 56.4876C42.8234 55.7406 54.6997 50.0637 56.1842 48.5697C57.6688 47.0758 56.9265 43.0423 52.3245 43.7893C50.0535 44.1579 47.4213 45.2175 45.034 46.1786C42.5831 47.1652 40.3905 48.0478 39.112 47.9721C36.5882 47.8228 29.9077 46.6277 29.9077 46.6277L37.5781 46.7187C37.5781 46.7187 38.6617 46.7752 40.1512 45.7314C41.6406 44.6875 42.9718 41.6978 40.745 41.6978C38.5182 41.6978 36.1428 40.9508 36.1428 40.9508L26.6417 38.8593C26.6417 38.8593 23.3758 38.2617 22.0397 38.8593C21.1896 39.2395 18.2551 40.285 16.2328 40.9952C16.0805 39.6439 14.9337 38.5937 13.5417 38.5937H10.8333Z" fill="#2B4053"/>
</svg>
