<svg width="65" height="65" viewBox="0 0 65 65" fill="none" xmlns="http://www.w3.org/2000/svg">
<path d="M27.8168 11.6454C27.8475 11.8522 27.9391 12.0452 28.0801 12.1996C28.2211 12.354 28.405 12.4627 28.6082 12.512C28.8114 12.5612 29.0247 12.5487 29.2207 12.4759C29.4167 12.4032 29.5865 12.2736 29.7084 12.1037L31.9136 9.0822C32.0767 8.85687 32.1437 8.57604 32.0999 8.30136C32.0561 8.02668 31.9051 7.78061 31.68 7.61716L28.6636 5.40437C28.496 5.28158 28.2958 5.21127 28.0883 5.20233C27.8807 5.19339 27.6752 5.24622 27.4977 5.35414C27.3201 5.46206 27.1786 5.62022 27.091 5.80859C27.0035 5.99697 26.9737 6.20709 27.0056 6.41238L27.2595 8.03611C23.6092 8.7968 20.169 10.3455 17.1794 12.5738C14.1898 14.8022 11.7229 17.6566 9.95105 20.9374C8.1792 24.2183 7.14517 27.8465 6.92123 31.5685C6.69729 35.2905 7.28883 39.0165 8.65453 42.4861L9.92406 45.3857H12.425L10.7746 41.6266C9.53701 38.4769 8.99987 35.0956 9.20055 31.7174C9.40123 28.3392 10.3349 25.0452 11.9367 22.0642C13.5386 19.0831 15.7702 16.4865 18.4765 14.4548C21.1828 12.423 24.299 11.0047 27.6086 10.2984L27.8168 11.6454Z" fill="#2B4053"/>
<path d="M57.6723 42.6144L56.2225 42.0215C57.3486 39.0921 57.924 35.9799 57.9198 32.8415C57.9198 20.6375 49.24 10.0775 37.2811 7.73145L36.8418 9.97471C47.7306 12.1101 55.6309 21.7268 55.6309 32.8415C55.6359 35.6819 55.1195 38.4991 54.1074 41.1531L52.7731 40.606C52.5811 40.5268 52.3699 40.5065 52.1662 40.5476C51.9626 40.5887 51.7758 40.6894 51.6295 40.8368C51.4832 40.9842 51.3839 41.1718 51.3443 41.3757C51.3047 41.5796 51.3266 41.7907 51.4071 41.9821L52.8531 45.4327C52.9608 45.6891 53.1657 45.8923 53.423 45.9977C53.6803 46.1031 53.9689 46.1022 54.2255 45.9951L57.6773 44.5605C57.8709 44.4816 58.0365 44.3466 58.1528 44.1729C58.2692 43.9992 58.3311 43.7948 58.3305 43.5857C58.33 43.3767 58.267 43.1726 58.1498 42.9995C58.0325 42.8264 57.8662 42.6923 57.6723 42.6144Z" fill="#2B4053"/>
<path d="M43.3906 23.2502C40.9899 23.1347 36.4856 23.4064 33.2775 26.5002C32.9379 26.8278 32.6214 27.1786 32.3305 27.5501C32.0399 27.1786 31.7239 26.8278 31.3847 26.5002C28.1753 23.4064 23.671 23.1347 21.2703 23.2502C20.5043 23.2835 19.7787 23.6028 19.2367 24.145C18.6947 24.6873 18.3757 25.413 18.3428 26.179C18.2285 28.5784 18.4989 33.0827 21.5928 36.2921C23.8068 38.5887 27.0352 39.7884 31.1904 39.8696V50.0767H22.1349V52.3618H42.4562V50.0767H33.4756V39.8696C37.6282 39.7871 40.8554 38.5874 43.0694 36.2921C46.1633 33.0827 46.4337 28.5784 46.3194 26.179C46.2859 25.413 45.9665 24.6874 45.4244 24.1452C44.8822 23.6031 44.1566 23.2838 43.3906 23.2502ZM20.6254 26.2869C20.6341 26.0897 20.7163 25.9029 20.8559 25.7633C20.9955 25.6238 21.1823 25.5415 21.3795 25.5328C23.4107 25.4351 27.2066 25.6471 29.7977 28.1455C31.5992 29.881 32.5615 32.4835 32.672 35.8897C30.906 32.208 27.3475 31.0324 27.166 30.9753L26.5122 33.0319C26.549 33.0434 29.813 34.125 31.0343 37.5857C27.6065 37.4855 24.9824 36.5193 23.2381 34.7103C20.7396 32.1191 20.5289 28.3182 20.6254 26.2869Z" fill="#2B4053"/>
</svg>
