<svg width="69" height="65" viewBox="0 0 69 65" fill="none" xmlns="http://www.w3.org/2000/svg">
<g clip-path="url(#clip0_1955_6275)">
<path d="M34.52 26.6C39.04 26.6 42.72 22.92 42.72 18.4C42.72 13.88 39.04 10.2 34.52 10.2C30 10.2 26.32 13.88 26.32 18.4C26.32 22.92 30 26.6 34.52 26.6ZM28.6 14.08C28.8 13.96 28.96 13.72 29.32 13.8C29.32 13.88 29.36 13.96 29.36 14C29.52 13.96 29.6 13.84 29.64 13.64C29.88 13.88 29.64 14.28 29.56 14.48C30.4 14.6 30.12 14 30.2 13.52C30.28 13.08 31.04 12.88 30.92 12.36C30.68 12.32 30.44 12.36 30.24 12.48C30.24 12.44 30.24 12.4 30.24 12.4C30.52 12.2 30.76 12.04 31.04 11.88C31.52 11.88 31.6 12.32 31.12 12.48C30.96 13.04 31.6 12.72 31.76 12.64C31.96 12.56 31.92 12.52 32.2 12.48C32.4 12.44 32.6 12.52 32.8 12.4C32.6 13 31.88 13 31.56 13.44C31.08 14.12 32.28 13.92 32.68 13.6C32.92 13.4 33 13.08 33.2 12.92C33.48 12.72 33.84 12.88 33.92 12.52C33.92 12.44 33.68 11.96 33.68 11.88C33.52 11.52 33.36 11.6 33.68 11.2C33.6 11.2 33.52 11.2 33.44 11.2C33.44 11.16 33.44 11.12 33.44 11.12C33.84 11.04 34.24 11 34.64 11C35 11 35.4 11.04 35.76 11.08C36.04 11.24 36.24 11.52 36.48 11.76C37.2 12.48 36.12 12.24 36.2 12.76C36.24 13.04 36.6 12.92 36.36 13.36C36.2 13.6 35.88 13.64 35.92 13.96C35.36 14.04 35 13.6 34.44 13.8C34.16 13.92 33.84 14.08 33.8 14.36C33.72 14.84 34.08 14.8 34.36 15C34.6 15.2 34.56 15.2 34.52 15.64C34.44 16 34.48 16.16 34.12 16.32C33.96 16.4 33.72 16.36 33.56 16.44C33.52 16.48 33.48 16.68 33.4 16.76C33.2 16.92 32.6 16.84 32.76 17.28C32.96 17.32 33.12 17.2 33.32 17.2C33.76 17.2 33.52 17.28 33.8 17.48C34.12 17.72 34.56 17.76 34.92 17.92C35.12 18 35.24 18.12 35.44 18.12C35.52 18.48 35.2 18.56 34.92 18.64C34.48 18.76 34.36 18.72 34.12 18.36C33.8 17.88 33.76 18.04 33.16 17.96C32.92 17.96 32.24 17.88 32.08 17.68C31.88 17.44 32.12 17.08 32.32 16.92C32.68 16.68 32.76 16.72 32.96 16.4C33.2 16.04 33.2 16.16 33.56 16C33.84 15.88 34.08 15.68 34.08 15.32C33.88 15.28 33.8 15.12 33.8 14.92L33.44 14.8C33.48 14.96 33.92 16.12 33.28 15.8C33.04 15.68 33.28 14.56 32.6 14.76C32.64 15.08 32.52 15.12 32.28 15.32C31.96 15.6 31.92 15.32 32.04 15.76C32.12 16.04 32.32 16 32.2 16.36C32.12 16.6 31.8 16.6 32.12 16.92C31.96 16.96 31.8 16.92 31.68 16.88C31.32 17.24 31.52 17.36 31.36 17.84C31.2 18.32 30.56 18.48 30.24 18.84C29.68 19.44 29.52 21 30.32 21.44C30.96 21.8 31.6 21.44 32.2 21.68C32.64 21.84 32.76 22.08 32.8 22.48C32.88 22.96 33.28 23.2 33.32 23.76C33.36 24.24 33.32 24.52 33.64 24.88C33.8 25.04 34.12 25.36 34.32 25.44C34.68 25.6 34.8 25.44 35.12 25.28C35.24 25.24 35.4 25.2 35.52 25.16C35.8 25 35.68 25.12 35.84 24.88C36 24.68 36.04 24.4 36.28 24.16C36.56 23.88 36.64 23.8 36.76 23.44C36.88 23.16 36.88 22.88 37 22.6C37.12 22.32 37.4 22.08 37.56 21.84C37.72 21.6 37.76 21.24 38 21.04C37.76 21.04 37.28 21.16 37.04 21.08C36.76 21 36.68 20.68 36.52 20.44C36.2 20.04 35.68 19.4 35.68 18.84C35.88 18.8 36.48 19.88 36.6 20.08C37.04 20.72 37.32 20.52 37.84 20.28C38.12 20.16 39.2 19.52 38.76 19.16C38.48 18.92 37.28 19.56 37.4 18.84C37.88 18.84 38.44 18.8 38.92 18.68C39.16 18.64 39.36 18.48 39.56 18.52C39.6 18.52 39.72 18.72 39.76 18.76C39.88 18.8 40.12 18.76 40.24 18.76C40.28 19.12 40.72 20.08 41.16 19.96C41.2 19.2 41.16 18.52 41.36 17.8C41.56 17.76 41.72 17.8 41.92 17.8C41.92 18 41.92 18.16 41.92 18.36C41.92 22.44 38.6 25.76 34.56 25.76C30.52 25.76 27.2 22.44 27.2 18.4C27.16 16.8 27.68 15.28 28.6 14.08ZM44.08 35.68C44.08 33.92 45.52 32.48 47.28 32.48C49.04 32.48 50.48 33.92 50.48 35.68C50.48 37.44 49.04 38.88 47.28 38.88C45.52 38.88 44.08 37.44 44.08 35.68ZM43.36 46.84C41.6 46.84 40.16 45.4 40.16 43.64C40.16 41.88 41.6 40.44 43.36 40.44C45.12 40.44 46.56 41.88 46.56 43.64C46.56 45.4 45.12 46.84 43.36 46.84ZM41.8 51.52V57.08H39.36V52.16C39.36 51.96 39.2 51.76 38.96 51.76C38.76 51.76 38.56 51.92 38.56 52.16V57.08H30.64V52.16C30.64 51.92 30.48 51.76 30.24 51.76C30.04 51.76 29.84 51.92 29.84 52.16V57.08H27.4V51.48C27.4 49.2 28.76 47.4 30.96 47.4H34.56H38.16C40.48 47.44 41.84 49.24 41.8 51.52ZM39.12 38.88C37.36 38.88 35.92 37.44 35.92 35.68C35.92 33.92 37.36 32.48 39.12 32.48C40.88 32.48 42.32 33.92 42.32 35.68C42.32 37.44 40.92 38.88 39.12 38.88ZM51.76 40.44C53.52 40.44 54.96 41.88 54.96 43.64C54.96 45.4 53.52 46.84 51.76 46.84C50 46.84 48.56 45.4 48.56 43.64C48.56 41.88 49.96 40.44 51.76 40.44ZM59 51.52V57.08H56.56V52.16C56.56 51.96 56.4 51.76 56.16 51.76C55.96 51.76 55.76 51.92 55.76 52.16V57.08H47.88V52.16C47.88 51.92 47.72 51.76 47.48 51.76C47.28 51.76 47.08 51.92 47.08 52.16V57.08H44.64V51.48C44.64 49.2 46 47.4 48.2 47.4H51.8H55.4C57.64 47.4 59.04 49.2 59 51.52ZM15 43.64C15 41.88 16.44 40.44 18.2 40.44C19.96 40.44 21.4 41.88 21.4 43.64C21.4 45.4 19.96 46.84 18.2 46.84C16.44 46.84 15 45.4 15 43.64ZM25.32 51.52V57.08H22.88V52.16C22.88 51.96 22.72 51.76 22.48 51.76C22.28 51.76 22.08 51.92 22.08 52.16V57.08H14.2V52.16C14.2 51.92 14.04 51.76 13.8 51.76C13.6 51.76 13.4 51.92 13.4 52.16V57.08H11V51.48C11 49.2 12.36 47.4 14.56 47.4H18.16H21.76C23.96 47.4 25.36 49.2 25.32 51.52ZM31.44 43.64C31.44 41.88 32.88 40.44 34.64 40.44C36.4 40.44 37.84 41.88 37.84 43.64C37.84 45.4 36.4 46.84 34.64 46.84C32.88 46.84 31.44 45.4 31.44 43.64ZM19.08 35.68C19.08 33.92 20.52 32.48 22.28 32.48C24.04 32.48 25.48 33.92 25.48 35.68C25.48 37.44 24.04 38.88 22.28 38.88C20.52 38.88 19.08 37.44 19.08 35.68ZM30.96 38.88C29.2 38.88 27.76 37.44 27.76 35.68C27.76 33.92 29.2 32.48 30.96 32.48C32.72 32.48 34.16 33.92 34.16 35.68C34.16 37.44 32.72 38.88 30.96 38.88ZM26.64 46.84C24.88 46.84 23.44 45.4 23.44 43.64C23.44 41.88 24.88 40.44 26.64 40.44C28.4 40.44 29.84 41.88 29.84 43.64C29.84 45.4 28.4 46.84 26.64 46.84Z" fill="#2B4053"/>
</g>
<defs>
<clipPath id="clip0_1955_6275">
<rect width="48" height="48" fill="white" transform="translate(11 9)"/>
</clipPath>
</defs>
</svg>
