<svg width="65" height="65" viewBox="0 0 65 65" fill="none" xmlns="http://www.w3.org/2000/svg">
<path d="M25.1436 16.0568C27.0923 16.0568 28.6721 14.4771 28.6721 12.5284C28.6721 10.5797 27.0923 9 25.1436 9C23.195 9 21.6152 10.5797 21.6152 12.5284C21.6152 14.4771 23.195 16.0568 25.1436 16.0568Z" fill="#2B4053"/>
<path d="M39.626 57C40.8993 57 42.0473 55.9083 42.066 54.7461L42.0668 48.8929C42.0668 48.7859 42.1535 48.6991 42.2606 48.6991H42.5509C42.6581 48.6991 42.7448 48.7859 42.7448 48.8929L42.7468 54.7765C42.7654 55.9383 43.6908 57 44.9642 57C46.167 57 47.1552 55.9915 47.2768 54.9006C47.2886 54.7944 47.296 40.9789 47.296 40.9789C47.296 40.9789 47.3382 40.7096 47.3904 40.6159C47.3904 40.6159 51.6005 33.0782 51.6532 32.9849C51.9744 32.4172 51.9886 31.6978 51.6293 31.0981C51.0977 30.2104 49.9469 29.9221 49.0591 30.4537C48.7339 30.6483 48.4902 30.9468 48.3365 31.2647L45.9914 35.4918C45.8836 35.6787 45.761 35.7521 45.532 35.7521H39.0072C38.9001 35.7521 38.7704 35.6767 38.7173 35.5842C38.7173 35.5842 36.2534 31.2671 36.2006 31.1739C36.1953 31.1642 36.1888 31.1552 36.1836 31.1455C35.6532 29.4172 33.3478 21.9026 33.3478 21.9026C32.9276 20.4424 32.1255 17.1179 29.0245 17.1179H21.2727C18.3835 17.1179 17.3599 20.4424 16.9399 21.9026C16.931 21.9334 14.186 30.8961 14.1848 30.9001C13.8871 31.8709 14.4329 32.8997 15.4038 33.1973C16.3742 33.495 17.4022 32.9496 17.7006 31.9796C17.7015 31.9796 20.4493 23.0209 20.4493 23.0209C20.4655 22.9833 20.5474 22.8259 20.7396 22.8259C20.7571 22.8259 21.1269 22.8259 21.1269 22.8259H21.1277C21.2372 22.8243 21.3009 22.9171 21.2721 23.0221L15.771 41.0239C15.7414 41.1289 15.771 41.3122 15.9625 41.3122H19.8214C19.9309 41.3122 20.0107 41.401 20.0107 41.5101C20.0107 41.5101 20.0099 54.6244 20.0099 54.6289C20.0099 55.9383 21.0716 57 22.381 57C23.6903 57 24.752 55.9383 24.752 54.6289L24.7529 41.5097C24.7529 41.4002 24.8413 41.3122 24.9504 41.3122H24.9536H25.3328H25.3361C25.4456 41.3122 25.5336 41.4006 25.5336 41.5097L25.5344 54.6289C25.5344 55.9383 26.5961 57 27.9054 57C29.2148 57 30.2765 55.9383 30.2765 54.6289C30.2765 54.6244 30.2756 41.5101 30.2756 41.5101C30.2756 41.4006 30.3555 41.3122 30.465 41.3122H34.3239C34.5154 41.3122 34.5454 41.1289 34.5154 41.0239L29.0149 23.0227C28.9862 22.9177 29.0498 22.8249 29.1593 22.8265H29.1601C29.1601 22.8265 29.5299 22.8265 29.5474 22.8265C29.7396 22.8265 29.8215 22.9838 29.8377 23.0215C29.8377 23.0215 32.4123 31.3995 32.7408 32.4664C32.7931 32.6979 32.8892 32.9136 33.0153 33.1059L37.225 40.3906C37.2786 40.483 37.322 40.6448 37.322 40.7519V54.7398C37.3404 55.9018 38.3522 57 39.626 57Z" fill="#2B4053"/>
<path d="M41.084 29.7327C40.2604 30.1683 39.6992 31.0329 39.6992 32.0292C39.6992 33.4634 40.8618 34.6261 42.2957 34.6261C43.7296 34.6261 44.8922 33.4634 44.8922 32.0296C44.8922 31.1431 44.4478 30.3604 43.7693 29.8921V28.3714L43.0694 29.5503C42.9932 29.5264 42.9149 29.5065 42.8354 29.4895V28.3714L42.1971 29.4355C42.0938 29.4391 41.992 29.4489 41.8922 29.4643V28.3714L41.084 29.7327Z" fill="#2B4053"/>
</svg>
