<svg width="65" height="65" viewBox="0 0 65 65" fill="none" xmlns="http://www.w3.org/2000/svg">
<g clip-path="url(#clip0_1952_6216)">
<path d="M14.5874 40.1438C14.6999 36.3938 12.6561 34.9688 10.1624 34.0312C9.33736 37.2563 11.6249 39.9375 14.5874 40.1438Z" fill="white"/>
<path d="M15.1504 23.3813C16.7442 19.9688 15.4129 17.8688 13.5004 16.0125C11.4942 18.6375 12.5254 22.0125 15.1504 23.3813Z" fill="white"/>
<path d="M16.0503 32.85C15.9378 29.1 17.9816 27.675 20.4753 26.7375C21.3003 29.9625 19.0128 32.625 16.0503 32.85Z" fill="white"/>
<path d="M16.0503 38.6438C15.9378 34.8938 17.9816 33.4688 20.4753 32.5312C21.3003 35.7563 19.0128 38.4188 16.0503 38.6438Z" fill="white"/>
<path d="M16.0503 27.0562C15.9378 23.3062 17.9816 21.8812 20.4753 20.9437C21.3003 24.1687 19.0128 26.85 16.0503 27.0562Z" fill="white"/>
<path d="M14.5874 34.3687C14.6999 30.6187 12.6561 29.1937 10.1624 28.2562C9.33736 31.4625 11.6249 34.1437 14.5874 34.3687Z" fill="white"/>
<path d="M14.5874 28.575C14.6999 24.825 12.6561 23.4 10.1624 22.4625C9.33736 25.6875 11.6249 28.35 14.5874 28.575Z" fill="white"/>
<path d="M42.7312 56.8875H22.5938L32.6625 39.45L42.7312 56.8875Z" fill="white"/>
<path d="M11.6629 45.0187L54.3191 33.4125L53.6816 31.0687L11.0254 42.675L11.6629 45.0187Z" fill="white"/>
<path d="M41.7559 9.11249C41.7559 9.11249 42.0746 15.2625 47.4559 14.7375C47.4559 14.7562 48.0746 9.59999 41.7559 9.11249Z" fill="white"/>
<path d="M47.4 29.1375C46.8375 29.9438 45.9 30.45 44.85 30.45C43.9875 30.45 43.1438 30.0375 42.5813 29.475C41.4188 28.2 39.9187 25.3688 39.9187 25.3688C39.075 23.6625 38.625 22.3313 38.625 20.9813C38.625 18.1313 40.9313 15.6562 43.8 15.6562C45.2063 15.6562 46.4812 16.2188 47.4187 17.1375C48.3562 16.2188 49.6312 15.6562 51.0375 15.6562C53.9062 15.6562 56.2125 18.1313 56.2125 20.9813C56.2125 22.3125 55.7625 23.6438 54.9187 25.3688C54.9187 25.3688 53.4187 28.2 52.2562 29.475C51.6937 30.0375 50.85 30.45 49.9875 30.45C48.9 30.45 47.9625 29.925 47.4 29.1375Z" fill="white"/>
</g>
<defs>
<clipPath id="clip0_1952_6216">
<rect width="48" height="48" fill="white" transform="translate(9 9)"/>
</clipPath>
</defs>
</svg>
