<svg width="65" height="65" viewBox="0 0 65 65" fill="none" xmlns="http://www.w3.org/2000/svg">
<path d="M56.8753 8.125H32.5003C31.0045 8.125 29.792 9.33756 29.792 10.8333V16.25H56.8753V8.125Z" fill="white"/>
<path d="M29.792 20.3125C29.792 19.5646 30.3983 18.9583 31.1462 18.9583H39.2712C40.0191 18.9583 40.6253 19.5646 40.6253 20.3125C40.6253 21.0604 40.0191 21.6666 39.2712 21.6666H31.1462C30.3983 21.6666 29.792 21.0604 29.792 20.3125Z" fill="white"/>
<path fill-rule="evenodd" clip-rule="evenodd" d="M35.2087 24.6078C35.9566 24.6078 36.5628 25.214 36.5628 25.962V28.6703C36.5628 29.4182 35.9566 30.0245 35.2087 30.0245C34.4608 30.0245 33.8545 29.4182 33.8545 28.6703V25.962C33.8545 25.214 34.4608 24.6078 35.2087 24.6078Z" fill="white"/>
<path fill-rule="evenodd" clip-rule="evenodd" d="M38.8741 24.7715C39.4029 24.2427 40.2604 24.2427 40.7892 24.7715L42.7043 26.6865C43.2332 27.2153 43.2332 28.0728 42.7043 28.6016C42.1755 29.1305 41.318 29.1305 40.7892 28.6016L38.8741 26.6865C38.3453 26.1577 38.3453 25.3003 38.8741 24.7715Z" fill="white"/>
<path fill-rule="evenodd" clip-rule="evenodd" d="M27.4796 28.834C26.9508 28.3052 26.9508 27.4477 27.4796 26.9189L29.3947 25.0039C29.9235 24.4749 30.7809 24.4749 31.3097 25.0039C31.8385 25.5327 31.8385 26.3901 31.3097 26.9189L29.3947 28.834C28.8659 29.3628 28.0084 29.3628 27.4796 28.834Z" fill="white"/>
<path fill-rule="evenodd" clip-rule="evenodd" d="M35.2087 31.3786C35.9566 31.3786 36.5628 31.9849 36.5628 32.7328V35.4411C36.5628 36.189 35.9566 36.7953 35.2087 36.7953C34.4608 36.7953 33.8545 36.189 33.8545 35.4411V32.7328C33.8545 31.9849 34.4608 31.3786 35.2087 31.3786Z" fill="white"/>
<path fill-rule="evenodd" clip-rule="evenodd" d="M43.6134 29.5111C44.1422 28.9823 44.9997 28.9823 45.5285 29.5111L47.4435 31.4262C47.9725 31.955 47.9725 32.8124 47.4435 33.3412C46.9147 33.8702 46.0573 33.8702 45.5285 33.3412L43.6134 31.4262C43.0846 30.8974 43.0846 30.0399 43.6134 29.5111Z" fill="white"/>
<path fill-rule="evenodd" clip-rule="evenodd" d="M22.7404 33.2351C22.2115 32.7063 22.2115 31.8488 22.7404 31.32L24.6554 29.4049C25.1842 28.876 26.0417 28.876 26.5705 29.4049C27.0993 29.9337 27.0993 30.7912 26.5705 31.32L24.6554 33.2351C24.1266 33.7639 23.2692 33.7639 22.7404 33.2351Z" fill="white"/>
<path fill-rule="evenodd" clip-rule="evenodd" d="M10.8333 38.5937C9.33756 38.5937 8.125 39.8063 8.125 41.3021V54.1667C8.125 55.6625 9.33756 56.875 10.8333 56.875H13.5417C15.0375 56.875 16.25 55.6625 16.25 54.1667V53.7068C17.5646 53.6615 18.9334 53.6261 19.516 53.6491C22.302 53.7592 24.3824 54.4081 26.486 55.0642C28.4485 55.6763 30.4311 56.2947 33.0253 56.4876C33.6773 56.536 34.3119 56.5986 34.9271 56.6593C37.1484 56.8784 39.1173 57.0726 40.745 56.4876C42.8234 55.7406 54.6997 50.0637 56.1842 48.5697C57.6688 47.0758 56.9265 43.0423 52.3245 43.7893C50.0535 44.1579 47.4213 45.2175 45.034 46.1786C42.5831 47.1652 40.3905 48.0478 39.112 47.9721C36.5882 47.8228 29.9077 46.6277 29.9077 46.6277L37.5781 46.7187C37.5781 46.7187 38.6617 46.7752 40.1512 45.7314C41.6406 44.6875 42.9718 41.6978 40.745 41.6978C38.5182 41.6978 36.1428 40.9508 36.1428 40.9508L26.6417 38.8593C26.6417 38.8593 23.3758 38.2617 22.0397 38.8593C21.1896 39.2395 18.2551 40.285 16.2328 40.9952C16.0805 39.6439 14.9337 38.5937 13.5417 38.5937H10.8333Z" fill="white"/>
</svg>
