<svg width="65" height="65" viewBox="0 0 65 65" fill="none" xmlns="http://www.w3.org/2000/svg">
<path d="M17.7848 21.5957C17.7848 19.0517 19.9699 17 22.7187 17C25.4499 17 27.6526 19.0517 27.6526 21.5957C27.6351 24.1562 25.4324 26.1914 22.7187 26.1914C19.9874 26.1914 17.7848 24.1397 17.7848 21.5957ZM45 41.3064H36.0476V33.8548C36.0476 30.2247 32.6417 27.2903 28.8095 27.2903H16.8095C12.6023 27.2903 8.99811 30.6861 9.00002 34.0323V47.6935C8.99506 49.2075 10.1431 49.998 11.2857 50C12.4313 50.0019 13.5714 49.2114 13.5714 47.6935V34.3871H15.0953V50H29.9524V34.3871H31.4762L31.4916 43.3237C31.4815 44.8724 32.5091 45.5319 33.5714 45.5645H45C48.1168 45.5645 48.1168 41.3064 45 41.3064ZM55.2941 37.9364V24.8994H52.4773V37.9365H51.5331V27.7818H48.7164V37.9365H47.7642V32.7408H44.9474V37.9364H44.0032V35.2905H41.1865V37.9364H39.5916V23.7907H38.5238V38.951H57V37.9564V37.9364H55.2941Z" fill="white"/>
</svg>
