<svg width="65" height="65" viewBox="0 0 65 65" fill="none" xmlns="http://www.w3.org/2000/svg">
<path d="M32.4887 40.591C32.5072 40.725 32.5197 40.861 32.5197 41V41.5C32.5197 41.8505 32.4577 42.187 32.3467 42.5H35.0547C35.3297 42.5 35.4997 42.28 35.4997 42.055C35.4997 41.915 35.4347 41.78 35.2997 41.69C34.4507 41.1215 33.4897 40.7495 32.4887 40.591Z" fill="white"/>
<path d="M30.1257 39.6035L30.8572 38.857L30.1432 38.157L29.5107 38.8025L29.5002 38L28.5002 38.0135L28.5077 38.571L27.7752 38.089L27.2252 38.924L28.3077 39.6365C27.5562 39.924 27.0202 40.647 27.0202 41.5C27.0202 42.804 27.6142 43.079 26.8907 44.164L26.0002 45H18.6772C18.4997 44.579 18.2727 44.187 17.9847 43.8345C16.7457 42.322 14.5872 41.666 12.4827 42.165L12.7132 43.1375C14.4482 42.7265 16.2132 43.249 17.2102 44.467C17.3457 44.633 17.4602 44.8135 17.5647 45H16.7472C16.2822 44.798 15.7327 44.6555 15.0942 44.651C13.6977 44.661 12.7197 45.3635 12.2607 45.7815L12.9347 46.521C13.2872 46.199 14.0382 45.6585 15.0997 45.6515C15.7972 45.6515 16.3682 45.883 16.8027 46.1585L16.8172 46.2145C16.5747 46.1685 16.3327 46.146 16.0942 46.1515C14.4212 46.1625 12.8687 47.2625 12.1387 48.9535L13.0567 49.35C13.6297 48.023 14.8247 47.16 16.1032 47.152C16.4407 47.1535 16.7752 47.2115 17.1102 47.3315L17.3792 48.358C17.8782 49.9805 19.1267 51.2165 20.6742 51.734L20.0357 53.915C19.9517 54.125 20.0192 54.3645 20.2002 54.5005L22.2002 56.0005L22.7997 55.2005L21.1062 53.9305L21.6602 51.955C21.8742 51.982 22.0907 52 22.3107 52C22.5307 52 22.7472 51.983 22.9617 51.958L22.5352 53.4145C22.4512 53.6245 22.5187 53.864 22.6997 54L24.6997 55.5L25.2992 54.7L23.6057 53.43L24.0877 51.712C25.7927 51.1445 27.1657 49.7785 27.7032 47.9875L28.0002 47L29.5202 44C30.6247 44 31.5202 43.1045 31.5202 42V41.5C31.5202 40.608 30.9322 39.861 30.1257 39.6035ZM20.1877 47.8905C20.0222 47.7575 19.9582 47.5345 20.0287 47.3345C20.0992 47.1345 20.2877 47 20.5002 47H23.5002V48H21.9257L23.3127 49.1095L22.6877 49.8905L20.1877 47.8905ZM30.0002 42H29.0002V41H30.0002V42Z" fill="white"/>
<path d="M52.8047 41.698C53.0242 41.918 53.2332 42.1545 53.4247 42.4005L54.2137 41.786C53.9967 41.507 53.7607 41.2395 53.5117 40.9905L52.8047 41.698Z" fill="white"/>
<path d="M53.9521 43.1735C54.1106 43.4405 54.2542 43.721 54.3792 44.0065L55.2951 43.606C55.1541 43.2825 54.9911 42.965 54.8111 42.6625L53.9521 43.1735Z" fill="white"/>
<path d="M52.3076 52.7565L52.9501 53.523C53.2211 53.296 53.4801 53.0505 53.7196 52.793L52.9881 52.1115C52.7766 52.3385 52.5481 52.5555 52.3076 52.7565Z" fill="white"/>
<path d="M50.7373 53.768L51.1698 54.6695C51.4883 54.5165 51.7998 54.343 52.0958 54.1525L51.5548 53.3115C51.2933 53.4795 51.0183 53.633 50.7373 53.768Z" fill="white"/>
<path d="M55.8913 45.64C55.8348 45.291 55.7558 44.9425 55.6573 44.6055L54.6973 44.8865C54.7848 45.184 54.8538 45.491 54.9038 45.8L55.8913 45.64Z" fill="white"/>
<path d="M54.4814 49.7465L55.4119 50.1125C55.5419 49.7825 55.6514 49.442 55.7379 49.102L54.7689 48.855C54.6929 49.1555 54.5959 49.4555 54.4814 49.7465Z" fill="white"/>
<path d="M39.0479 46.0925L40.0419 46.198C40.0749 45.8875 40.1279 45.577 40.1989 45.275L39.2254 45.0455C39.1449 45.3875 39.0854 45.7395 39.0479 46.0925Z" fill="white"/>
<path d="M40.2658 48.985L39.3008 49.2485C39.3938 49.5885 39.5093 49.9265 39.6448 50.2535L40.5688 49.8705C40.4493 49.5825 40.3473 49.2845 40.2658 48.985Z" fill="white"/>
<path d="M53.584 51.3865L54.3935 51.9735C54.5995 51.689 54.7905 51.3865 54.961 51.0755L54.084 50.595C53.9335 50.87 53.765 51.136 53.584 51.3865Z" fill="white"/>
<path d="M45.9063 39.67C46.2088 39.604 46.5208 39.557 46.8323 39.5295L46.7433 38.5335C46.3908 38.5645 46.0378 38.6185 45.6943 38.6925L45.9063 39.67Z" fill="white"/>
<path d="M41.9211 41.9875L41.1781 41.3185C40.9416 41.581 40.7196 41.8615 40.5186 42.1505L41.3401 42.722C41.5166 42.4665 41.7126 42.219 41.9211 41.9875Z" fill="white"/>
<path d="M40.002 47.1355L39.002 47.151C39.008 47.503 39.0355 47.859 39.0855 48.2085L40.0755 48.068C40.0315 47.76 40.007 47.446 40.002 47.1355Z" fill="white"/>
<path d="M42.5891 41.3305C42.8256 41.126 43.0761 40.9345 43.3336 40.762L42.7781 39.931C42.4861 40.1265 42.2021 40.3425 41.9346 40.5745L42.5891 41.3305Z" fill="white"/>
<path d="M47.5179 54.5C47.3814 54.5045 47.2364 54.4965 47.0969 54.4895L47.0449 55.4885C47.2024 55.497 47.3634 55.506 47.5184 55.5C47.7154 55.5 47.9109 55.4925 48.1044 55.4795L48.0349 54.482C47.8644 54.4935 47.6924 54.5 47.5179 54.5Z" fill="white"/>
<path d="M40.9803 50.71L40.1123 51.207C40.2883 51.5135 40.4838 51.8115 40.6943 52.093L41.4953 51.4935C41.3083 51.245 41.1353 50.9815 40.9803 50.71Z" fill="white"/>
<path d="M48.7001 39.595L48.8591 38.6075C48.5116 38.552 48.1566 38.517 47.8036 38.505L47.7686 39.504C48.0806 39.5155 48.3941 39.546 48.7001 39.595Z" fill="white"/>
<path d="M41.3818 52.901C41.6283 53.1565 41.8923 53.3975 42.1648 53.618L42.7928 52.8395C42.5518 52.645 42.3193 52.4325 42.1013 52.2065L41.3818 52.901Z" fill="white"/>
<path d="M43.0312 54.2315C43.3318 54.418 43.6468 54.5865 43.9678 54.7335L44.3838 53.8245C44.1008 53.695 43.8233 53.546 43.5588 53.382L43.0312 54.2315Z" fill="white"/>
<path d="M44.1433 40.2915C44.4223 40.1515 44.7123 40.0285 45.0048 39.9255L44.6728 38.982C44.3408 39.099 44.0123 39.239 43.6953 39.397L44.1433 40.2915Z" fill="white"/>
<path d="M44.959 55.114C45.2965 55.2195 45.6435 55.3045 45.9905 55.3665L46.1665 54.382C45.8605 54.3275 45.5545 54.2525 45.258 54.16L44.959 55.114Z" fill="white"/>
<path d="M50.4943 40.1215L50.8938 39.2045C50.5688 39.063 50.2323 38.941 49.8948 38.842L49.6143 39.802C49.9113 39.889 50.2073 39.9965 50.4943 40.1215Z" fill="white"/>
<path d="M48.9648 54.357L49.1583 55.3385C49.5038 55.27 49.8498 55.179 50.1853 55.0675L49.8698 54.1185C49.5733 54.217 49.2693 54.297 48.9648 54.357Z" fill="white"/>
<path d="M54.9954 46.733C54.9984 46.822 54.9999 46.9105 54.9999 47C54.9999 47.3125 54.9804 47.6275 54.9424 47.9355L55.9344 48.0585C55.9779 47.71 55.9999 47.3535 55.9999 47C55.9999 46.899 55.9984 46.7975 55.9944 46.697L54.9954 46.733Z" fill="white"/>
<path d="M40.8527 43.523L39.9672 43.058C39.8037 43.37 39.6577 43.6965 39.5342 44.028L40.4707 44.3775C40.5797 44.0855 40.7082 43.798 40.8527 43.523Z" fill="white"/>
<path d="M51.3281 40.5495C51.5936 40.707 51.8546 40.8855 52.1031 41.0785L52.7166 40.2885C52.4356 40.07 52.1406 39.869 51.8401 39.6905L51.3281 40.5495Z" fill="white"/>
<path d="M51.9049 43.876C51.1104 42.9785 49.8229 42.9785 49.0284 43.876L47.5904 45.501L45.9724 43.673C45.1779 42.7755 43.8904 42.7755 43.0959 43.673C42.3014 44.5705 42.3014 46.025 43.0959 46.9225L43.1644 47H44.7929L45.6464 46.1465C45.7554 46.038 45.9099 45.986 46.0609 46.004C46.2139 46.0225 46.3494 46.111 46.4284 46.243L47.5989 48.194L49.1464 46.6465C49.2404 46.5525 49.3674 46.5 49.5004 46.5H52.2889C52.6564 45.644 52.5339 44.587 51.9049 43.876Z" fill="white"/>
<path d="M51.5733 47.5H49.7073L47.8538 49.3535C47.7598 49.448 47.6323 49.5 47.5003 49.5C47.4798 49.5 47.4598 49.4985 47.4393 49.496C47.2863 49.4775 47.1508 49.389 47.0718 49.257L45.9013 47.306L45.3538 47.8535C45.2603 47.9475 45.1333 48 45.0003 48H44.0498L47.5903 52L51.5733 47.5Z" fill="white"/>
<path d="M44.5 31H46.5V38L46.6685 38.042C46.9425 38.017 47.2195 38 47.5 38C49.3235 38 51.0195 38.549 52.439 39.4845L52.5 39.5V31H54.5L49.5 25L44.5 31Z" fill="white"/>
<path d="M13.0547 24.2L17.4547 29.18L19.0947 27.775L15.3947 23.585L13.0547 24.2Z" fill="white"/>
<path d="M20 27L16.5 30L20.5 34.5L21.2825 33.829L24.8555 37.8795L26.1805 36.1145L22.922 32.424L24 31.5L20 27ZM20.4595 31.832L19.126 30.332L19.8735 29.668L21.207 31.168L20.4595 31.832Z" fill="white"/>
<path d="M21.0974 11.355C20.3929 12.412 20.1169 13.6975 20.3259 14.9505L20.3529 15.1115L21.4849 15.451L22.6729 15.055C23.0474 14.9255 23.4334 14.85 23.8214 14.8205L23.4654 14.464C22.5274 13.527 22.0004 12.255 22.0004 10.929V10L21.0974 11.355Z" fill="white"/>
<path d="M18.381 42.97C18.6395 43.287 18.8525 43.6335 19.0305 44H21.599L22.5 42.6645L24.5115 39.044L21.158 35.2435L20.967 35.4075C20.7785 35.569 20.547 35.648 20.3165 35.648C20.0405 35.648 19.766 35.534 19.5685 35.3125L15.5685 30.8125C15.39 30.612 15.3 30.348 15.318 30.08C15.3365 29.8125 15.4615 29.5635 15.665 29.3885L15.8605 29.2205L11.8075 24.5L10.053 24.6645L10 31.1645V41L12.3765 41.1305C14.663 40.5885 17.0215 41.31 18.381 42.97Z" fill="white"/>
<path d="M42 29.7895C42 28.999 41.5535 28.2765 40.8465 27.9235C37.6625 26.3315 34.9115 23.993 32.8275 21.1075C30.9065 18.4475 28.083 16.5965 24.9045 15.885C24.2725 15.7435 23.612 15.7875 23 16L21.5 16.5L19.398 15.8695C17.512 15.3035 15.4975 15.334 13.6295 15.957L10.5 17L13.017 18.602C14.942 19.8265 17.2415 20.3225 19.5 20C19.145 21.065 18.4475 21.9975 17.487 22.5785C17.111 22.806 16.722 23.01 16.325 23.1955L19.0205 26.3485L19.165 26.2245C19.58 25.869 20.202 25.9125 20.563 26.319L24.563 30.819C24.7415 31.0195 24.8315 31.2835 24.8135 31.5515C24.795 31.819 24.67 32.068 24.4665 32.243L24.316 32.372L27.0415 35.459L27.5 35C29.404 33.096 32.045 32.119 34.73 32.3255L35.731 32.4025C36.573 32.4675 37.4195 32.416 38.2475 32.2505L40.3225 31.8355C41.298 31.6405 42 30.784 42 29.7895ZM20.342 18.474L19.2735 18.118C18.0435 17.708 16.7615 17.5 15.464 17.5H15V16.5H15.464C16.8695 16.5 18.2575 16.725 19.5895 17.17L20.658 17.526L20.342 18.474ZM30.255 21.3525C30.0155 21.218 29.7525 21.1175 29.479 21.0455C29.4925 21.1115 29.5 21.18 29.5 21.25C29.5 21.8025 29.0525 22.25 28.5 22.25C27.9475 22.25 27.5 21.8025 27.5 21.25C27.5 21.18 27.5075 21.1115 27.5215 21.0455C27.248 21.1175 26.985 21.218 26.7455 21.3525L26.2555 20.4805C27.5985 19.7255 29.403 19.7255 30.7455 20.4805L30.255 21.3525ZM40 29H38.5V28H40V29Z" fill="white"/>
</svg>
